<svg width="48" height="48" viewBox="0 0 48 48" fill="none" xmlns="http://www.w3.org/2000/svg">
<g clip-path="url(#clip0_6_182)">
<path d="M0 24V48H48V0H0V24Z" fill="#007ACC"/>
<path d="M10.6147 24.1594L10.5995 26.1249H16.847V43.8774H21.266V26.1249H27.5137V24.1974C27.5137 23.1306 27.4909 22.2392 27.4605 22.2163C27.4376 22.1859 23.6355 22.1706 19.0262 22.1782L10.6374 22.2011L10.6147 24.1592V24.1594ZM38.7313 22.1452C39.9502 22.4499 40.8799 22.9909 41.7332 23.8747C42.1751 24.3472 42.8302 25.2081 42.8837 25.4137C42.8987 25.4747 40.8112 26.8766 39.5465 27.6615C39.5008 27.6919 39.3178 27.4939 39.1121 27.189C38.495 26.2899 37.8474 25.9014 36.8569 25.8328C35.4019 25.7338 34.4645 26.4956 34.4722 27.768C34.4722 28.1415 34.5255 28.3624 34.6779 28.6671C34.998 29.3301 35.5922 29.7262 37.4589 30.5338C40.895 32.0119 42.3654 32.9871 43.2799 34.3738C44.3008 35.9205 44.5294 38.3891 43.836 40.2253C43.0742 42.2214 41.1847 43.5776 38.5254 44.0271C37.7027 44.1718 35.7523 44.1489 34.8684 43.989C32.9409 43.6462 31.1122 42.6937 29.9846 41.4442C29.5427 40.9567 28.6817 39.6842 28.7351 39.5929C28.758 39.5623 28.956 39.4404 29.1769 39.3109C29.3902 39.189 30.198 38.7242 30.9598 38.2824L32.3389 37.4824L32.6284 37.9091C33.0322 38.526 33.9159 39.3718 34.4494 39.6538C35.9807 40.4614 38.0837 40.3472 39.1198 39.4176C39.5617 39.0139 39.7445 38.5948 39.7445 37.9776C39.7445 37.4214 39.6759 37.1777 39.3864 36.7586C39.0133 36.2252 38.2513 35.7757 36.0874 34.8386C33.6112 33.7717 32.5445 33.1091 31.5694 32.0576C31.0055 31.4482 30.4721 30.4729 30.2512 29.6576C30.0684 28.9794 30.0225 27.2805 30.1674 26.5948C30.678 24.2023 32.4836 22.5337 35.0893 22.0386C35.9349 21.8786 37.9007 21.9396 38.7313 22.1452Z" fill="white"/>
</g>
<defs>
<clipPath id="clip0_6_182">
<rect width="48" height="48" fill="white"/>
</clipPath>
</defs>
</svg>
