<svg width="49" height="48" viewBox="0 0 49 48" fill="none" xmlns="http://www.w3.org/2000/svg">
<g clip-path="url(#clip0_6_185)">
<path d="M23.8901 0.0135498C11.6864 0.0135498 12.4484 5.30578 12.4484 5.30578L12.462 10.7887H24.1077V12.4348H7.83647C7.83647 12.4348 0.0273438 11.5492 0.0273438 23.8626C0.0273438 36.1764 6.84334 35.7397 6.84334 35.7397H10.9111V30.0256C10.9111 30.0256 10.6918 23.2096 17.6183 23.2096H29.1688C29.1688 23.2096 35.6582 23.3144 35.6582 16.9378V6.39435C35.6582 6.39435 36.6438 0.0135498 23.8901 0.0135498ZM17.4687 3.7007C17.7439 3.70045 18.0164 3.75448 18.2707 3.85967C18.525 3.96487 18.7561 4.11918 18.9506 4.31378C19.1452 4.50837 19.2995 4.73943 19.4047 4.99372C19.5099 5.24802 19.564 5.52056 19.5637 5.79576C19.564 6.07096 19.5099 6.3435 19.4047 6.5978C19.2995 6.85209 19.1452 7.08315 18.9506 7.27774C18.7561 7.47234 18.525 7.62665 18.2707 7.73185C18.0164 7.83704 17.7439 7.89107 17.4687 7.89082C17.1935 7.89107 16.9209 7.83704 16.6666 7.73185C16.4123 7.62665 16.1813 7.47234 15.9867 7.27774C15.7921 7.08315 15.6378 6.85209 15.5326 6.5978C15.4274 6.3435 15.3734 6.07096 15.3736 5.79576C15.3734 5.52056 15.4274 5.24802 15.5326 4.99372C15.6378 4.73943 15.7921 4.50837 15.9867 4.31378C16.1813 4.11918 16.4123 3.96487 16.6666 3.85967C16.9209 3.75448 17.1935 3.70045 17.4687 3.7007Z" fill="url(#paint0_linear_6_185)"/>
<path d="M24.2366 47.8354C36.4403 47.8354 35.6783 42.5432 35.6783 42.5432L35.6648 37.0605H24.0188V35.4144H40.2901C40.2901 35.4144 48.0992 36.3 48.0992 23.9862C48.0992 11.6726 41.2832 12.1093 41.2832 12.1093H37.2154V17.8232C37.2154 17.8232 37.4347 24.6392 30.5082 24.6392H18.9577C18.9577 24.6392 12.4683 24.5344 12.4683 30.9112V41.4548C12.4683 41.4548 11.4829 47.8354 24.2364 47.8354H24.2366ZM30.6581 44.1487C30.3829 44.1489 30.1103 44.0949 29.856 43.9897C29.6017 43.8845 29.3707 43.7302 29.1761 43.5356C28.9815 43.341 28.8272 43.1099 28.722 42.8557C28.6168 42.6014 28.5628 42.3288 28.563 42.0536C28.5627 41.7784 28.6168 41.5058 28.7219 41.2515C28.8271 40.9972 28.9814 40.7661 29.176 40.5715C29.3706 40.3769 29.6017 40.2226 29.856 40.1174C30.1103 40.0121 30.3829 39.9581 30.6581 39.9584C30.9333 39.9581 31.2058 40.0121 31.4601 40.1173C31.7144 40.2225 31.9455 40.3769 32.1401 40.5714C32.3347 40.766 32.489 40.9971 32.5942 41.2514C32.6994 41.5057 32.7534 41.7782 32.7531 42.0534C32.7534 42.3286 32.6994 42.6012 32.5942 42.8555C32.489 43.1098 32.3347 43.3408 32.1401 43.5354C31.9455 43.73 31.7144 43.8843 31.4601 43.9895C31.2058 44.0947 30.9333 44.1487 30.6581 44.1485V44.1487Z" fill="url(#paint1_linear_6_185)"/>
</g>
<defs>
<linearGradient id="paint0_linear_6_185" x1="4.64704" y1="4.31485" x2="28.47" y2="27.9002" gradientUnits="userSpaceOnUse">
<stop stop-color="#387EB8"/>
<stop offset="1" stop-color="#366994"/>
</linearGradient>
<linearGradient id="paint1_linear_6_185" x1="19.2695" y1="19.4599" x2="44.8527" y2="43.6445" gradientUnits="userSpaceOnUse">
<stop stop-color="#FFE052"/>
<stop offset="1" stop-color="#FFC331"/>
</linearGradient>
<clipPath id="clip0_6_185">
<rect width="48.1882" height="48" fill="white"/>
</clipPath>
</defs>
</svg>
