<svg width="48" height="48" viewBox="0 0 48 48" fill="none" xmlns="http://www.w3.org/2000/svg">
<g clip-path="url(#clip0_6_176)">
<path d="M0 41.8108C0 45.2293 2.77106 48 6.18919 48H41.8106C45.2293 48 48 45.2289 48 41.8108V6.18937C48 2.77069 45.2289 0 41.8108 0H6.18937C2.77069 0 0 2.77106 0 6.18919V41.8106V41.8108Z" fill="#563D7C"/>
<path d="M19.9046 21.2321V14.4347H25.8879C26.4579 14.4347 27.0073 14.4821 27.5364 14.5772C28.0655 14.6721 28.5337 14.8416 28.9408 15.0859C29.3477 15.3302 29.6734 15.6694 29.9177 16.1034C30.1618 16.5377 30.284 17.094 30.284 17.7722C30.284 18.9934 29.9177 19.8754 29.1849 20.418C28.4524 20.9608 27.5162 21.2321 26.3764 21.2321H19.9046ZM13.514 9.46875V38.5312H27.5975C28.9001 38.5312 30.1687 38.3685 31.4034 38.0428C32.6381 37.7171 33.737 37.2152 34.7004 36.5368C35.6636 35.8584 36.4303 34.9832 37.0001 33.9114C37.5701 32.8395 37.8549 31.5709 37.8549 30.1056C37.8549 28.2874 37.4139 26.7339 36.5321 25.4451C35.6501 24.156 34.3136 23.2537 32.5226 22.7381C33.8252 22.1141 34.809 21.3135 35.4739 20.3366C36.1385 19.3597 36.471 18.1388 36.471 16.6733C36.471 15.3165 36.2471 14.1769 35.7994 13.2542C35.3516 12.3317 34.7207 11.5922 33.9065 11.0359C33.0926 10.4796 32.1157 10.0792 30.9759 9.83512C29.8363 9.59081 28.5744 9.46875 27.1905 9.46875H13.514ZM19.9046 33.5653V25.5874H26.8648C28.2487 25.5874 29.3614 25.9061 30.2027 26.544C31.0438 27.1817 31.4645 28.2467 31.4645 29.7392C31.4645 30.4991 31.3355 31.1231 31.0777 31.6116C30.8199 32.1 30.474 32.4868 30.0397 32.7716C29.6057 33.0566 29.1035 33.2601 28.5337 33.3823C27.9637 33.5042 27.3669 33.5653 26.7427 33.5653H19.9046Z" fill="white"/>
</g>
<defs>
<clipPath id="clip0_6_176">
<rect width="48" height="48" fill="white"/>
</clipPath>
</defs>
</svg>
