<svg width="48" height="36" viewBox="0 0 48 36" fill="none" xmlns="http://www.w3.org/2000/svg">
<g clip-path="url(#clip0_6_179)">
<path d="M41.3027 20.7214C39.6328 20.73 38.1814 21.1322 36.9662 21.7267C36.5201 20.8436 36.0743 20.0569 35.9957 19.4797C35.9081 18.8066 35.8033 18.3956 35.9081 17.5912C36.0131 16.7869 36.4853 15.6414 36.4765 15.5541C36.4678 15.4667 36.3715 15.0557 35.4098 15.0471C34.4481 15.0382 33.6175 15.2306 33.5213 15.4841C33.4251 15.7376 33.2415 16.3147 33.1191 16.9091C32.953 17.7836 31.1957 20.9047 30.1903 22.5397C29.8667 21.9017 29.587 21.342 29.5257 20.8961C29.4383 20.223 29.3333 19.812 29.4383 19.0076C29.5433 18.2032 30.0154 17.058 30.0066 16.9704C29.9978 16.8831 29.9016 16.4721 28.9399 16.4634C27.978 16.4546 27.1474 16.647 27.0514 16.9005C26.9552 17.1542 26.8502 17.7486 26.6492 18.3257C26.448 18.9028 24.1137 24.1138 23.5016 25.4601C23.2543 26.005 22.9949 26.5443 22.7235 27.0776C22.7235 27.0776 22.7147 27.1039 22.6885 27.1476C22.6032 27.3148 22.5158 27.4809 22.4263 27.6459V27.6546C22.2951 27.8908 22.1552 28.1092 22.0853 28.1092C22.0328 28.1092 21.9366 27.4798 22.1027 26.6229C22.4524 24.8132 23.283 21.9979 23.2744 21.9017C23.2744 21.8492 23.4317 21.3596 22.7323 21.1059C22.0502 20.8524 21.8055 21.2721 21.7442 21.2721C21.6831 21.2721 21.6392 21.4207 21.6392 21.4207C21.6392 21.4207 22.4001 18.2557 20.188 18.2557C18.8067 18.2557 16.9005 19.7683 15.9563 21.1322C14.8829 21.7163 13.8104 22.3021 12.7388 22.8896C12.2232 23.1782 11.6897 23.4667 11.1913 23.7377C11.1563 23.7028 11.1214 23.6589 11.0863 23.6241C8.4109 20.7651 3.4624 18.7453 3.67221 14.9072C3.75096 13.5082 4.23171 9.83606 13.176 5.37712C20.5377 1.74863 26.3957 2.754 27.4099 4.98356C28.8612 8.16619 24.2711 14.0766 16.6645 14.9332C13.7618 15.2569 12.2404 14.1377 11.8558 13.7181C11.4536 13.2808 11.3923 13.2546 11.2436 13.3421C10.999 13.4734 11.1563 13.8667 11.2436 14.094C11.4711 14.6884 12.4065 15.7376 13.989 16.2536C15.388 16.7081 18.789 16.9618 22.9071 15.3705C27.5147 13.5868 31.117 8.6295 30.0591 4.47656C29.001 0.262313 22.0065 -1.12781 15.388 1.224C11.4536 2.62313 7.1869 4.82625 4.11809 7.69406C0.472149 11.1037 -0.104976 14.0677 0.131087 15.3094C0.979337 19.7158 7.05584 22.5836 9.4864 24.7082C9.36396 24.7781 9.25015 24.8394 9.15415 24.8919C7.93877 25.4951 3.3049 27.9169 2.15084 30.4787C0.839462 33.3814 2.36084 35.4624 3.36621 35.742C6.48752 36.6077 9.69621 35.0514 11.4186 32.4808C13.141 29.9104 12.9311 26.5704 12.1356 25.0404C12.1268 25.023 12.1182 25.0054 12.1005 24.9879C12.4153 24.8044 12.7388 24.612 13.0536 24.4284C13.6322 24.0864 14.2181 23.7569 14.811 23.4403C14.5136 24.2535 14.295 25.224 14.1902 26.6229C14.059 28.2667 14.7321 30.3999 15.6152 31.2392C16.0088 31.6067 16.4721 31.6153 16.7695 31.6153C17.8011 31.6153 18.2646 30.7584 18.7804 29.7442C19.4098 28.5028 19.9781 27.0602 19.9781 27.0602C19.9781 27.0602 19.27 30.9596 21.1935 30.9596C21.8929 30.9596 22.6011 30.0502 22.9159 29.5869V29.5956C22.9159 29.5956 22.9333 29.5693 22.9684 29.5082C23.0383 29.3946 23.082 29.3244 23.082 29.3244V29.3072C23.3618 28.8174 23.9914 27.7071 24.9268 25.8622C26.1334 23.4842 27.2963 20.5116 27.2963 20.5116C27.2963 20.5116 27.4013 21.2372 27.7596 22.4437C27.9696 23.1519 28.4065 23.9301 28.7563 24.6819C28.4766 25.0755 28.3017 25.2939 28.3017 25.2939L28.3105 25.3027C28.083 25.5999 27.8383 25.9234 27.5672 26.2384C26.6141 27.3748 25.4777 28.6777 25.3202 29.0535C25.1365 29.4994 25.1803 29.823 25.5302 30.0853C25.7837 30.2777 26.2382 30.3037 26.7017 30.2777C27.5586 30.2164 28.1618 30.0066 28.459 29.8755C28.9225 29.7094 29.4645 29.4557 29.9715 29.0797C30.9072 28.389 31.4753 27.4011 31.423 26.0985C31.3967 25.3815 31.1607 24.6645 30.8721 23.9912C30.9597 23.8689 31.0382 23.7465 31.1258 23.6241C32.6033 21.4644 33.7487 19.095 33.7487 19.095C33.7487 19.095 33.8537 19.8206 34.212 21.0274C34.387 21.6394 34.7455 22.3039 35.0601 22.9507C33.67 24.0787 32.8131 25.3901 32.5071 26.247C31.9564 27.8383 32.3846 28.5551 33.1978 28.7212C33.565 28.8 34.0896 28.6251 34.4743 28.4589C34.9639 28.3016 35.541 28.0307 36.0919 27.6283C37.0275 26.9377 37.9279 25.9759 37.8754 24.6733C37.8491 24.0787 37.6918 23.4928 37.4732 22.9245C38.6535 22.4351 40.1749 22.164 42.1157 22.3912C46.2776 22.8808 47.0995 25.4775 46.942 26.5706C46.7846 27.6634 45.9103 28.2579 45.622 28.4415C45.3332 28.6252 45.2372 28.6864 45.2635 28.8174C45.2983 29.0098 45.4382 29.0012 45.6831 28.9661C46.0242 28.905 47.869 28.083 47.9475 26.0721C48.0788 23.5016 45.6306 20.6951 41.3027 20.7214ZM9.19784 31.5454C7.81634 33.0491 5.89296 33.6174 5.06234 33.1367C4.17059 32.6207 4.52027 30.3999 6.2164 28.8088C7.24802 27.8383 8.57702 26.9376 9.46015 26.3869C9.66115 26.2644 9.95852 26.0897 10.317 25.8711C10.3781 25.836 10.4132 25.8186 10.4132 25.8186L10.623 25.6873C11.2436 27.9606 10.6493 29.9629 9.19784 31.5454ZM19.2525 24.7082C18.7716 25.8799 17.7662 28.8787 17.1542 28.7126C16.6296 28.5727 16.306 26.2995 17.0492 24.0525C17.4251 22.9245 18.2207 21.5781 18.6842 21.0536C19.4361 20.2142 20.2667 19.9342 20.4677 20.2755C20.7214 20.7214 19.5497 23.9737 19.2525 24.7082ZM27.5498 28.6776C27.3486 28.7826 27.1564 28.8525 27.0688 28.8C27.0077 28.7649 27.1564 28.6251 27.1564 28.6251C27.1564 28.6251 28.1968 27.5061 28.6077 26.9989C28.8439 26.7017 29.1235 26.352 29.4208 25.9584V26.0721C29.4208 27.4099 28.1267 28.3104 27.5496 28.6776H27.5498ZM33.9497 27.2175C33.801 27.1125 33.8273 26.7628 34.3257 25.6699C34.518 25.2414 34.9725 24.5246 35.7508 23.8339C35.8382 24.1136 35.8995 24.3847 35.8907 24.6382C35.8819 26.3257 34.6755 26.9552 33.9497 27.2175Z" fill="#CD6799"/>
</g>
<defs>
<clipPath id="clip0_6_179">
<rect width="48" height="36" fill="white"/>
</clipPath>
</defs>
</svg>
