<?xml version="1.0" encoding="utf-8"?>
<!-- Svg Vector Icons : http://www.onlinewebfonts.com/icon -->
<!DOCTYPE svg PUBLIC "-//W3C//DTD SVG 1.1//EN" "http://www.w3.org/Graphics/SVG/1.1/DTD/svg11.dtd">
<svg version="1.1" xmlns="http://www.w3.org/2000/svg" xmlns:xlink="http://www.w3.org/1999/xlink" x="0px" y="0px" viewBox="0 0 1000 1000" enable-background="new 0 0 1000 1000" xml:space="preserve">
<metadata> Svg Vector Icons : http://www.onlinewebfonts.com/icon </metadata>
<g><path d="M716.4,99.8c129.5,0,234.4,104.9,234.4,234.4c0,66.5-27.7,126.4-72.2,169.1L500,883.8L114.6,496.5c-40.4-42.1-65.4-99.2-65.4-162.3c0-129.5,105-234.4,234.4-234.4c97.5,0,181.1,59.5,216.4,144.2C535.3,159.4,618.9,99.8,716.4,99.8 M716.4,60.6c-86.2,0-165.4,40-216.4,106c-51-66-130.2-106-216.4-106C132.8,60.6,10,183.4,10,334.2c0,70.9,27.1,138.2,76.3,189.4l385.9,387.8l27.8,27.9l27.8-27.9L906.4,531c53.7-51.5,83.6-121.6,83.6-196.8C990,183.4,867.3,60.6,716.4,60.6L716.4,60.6z"/></g>
</svg>