<svg width="14" height="14" viewBox="0 0 14 14" fill="none" xmlns="http://www.w3.org/2000/svg">
<path d="M12.621 5.30993L8.7111 4.72689L6.96327 1.09119C6.91553 0.991648 6.837 0.911066 6.73998 0.862084C6.49667 0.73884 6.201 0.841543 6.07935 1.09119L4.33152 4.72689L0.421611 5.30993C0.313816 5.32573 0.215259 5.37788 0.139802 5.45688C0.048579 5.55308 -0.00168917 5.68251 4.3343e-05 5.81672C0.00177586 5.95093 0.0553674 6.07895 0.149042 6.17264L2.97791 9.00252L2.30958 12.9985C2.2939 13.0914 2.30393 13.187 2.33851 13.2744C2.3731 13.3618 2.43086 13.4376 2.50525 13.493C2.57964 13.5484 2.66768 13.5814 2.75939 13.5881C2.8511 13.5948 2.9428 13.575 3.02411 13.5309L6.52131 11.6444L10.0185 13.5309C10.114 13.5831 10.2249 13.6005 10.3311 13.5815C10.5991 13.5341 10.7792 13.2734 10.733 12.9985L10.0647 9.00252L12.8936 6.17264C12.9706 6.09522 13.0214 5.9941 13.0368 5.88349C13.0784 5.60698 12.8905 5.35102 12.621 5.30993Z" fill="#FFB742"/>
</svg>
